#!OML:ASF E:\Mandelcareful walks\Project 1\Capture day 1\Session 1\Subject1.ASF
:FULLY-SPECIFIED
:DEGREES
158
root 13.1996 13.8695 0.179167 -50.9518 -83.1214 66.6437
lowerback 46.1221 2.19051 5.48942
upperback 11.2307 3.32047 -1.00229
thorax -8.16735 0.984114 -5.20848
lowerneck -31.8884 -6.94301 -9.76214
upperneck 25.6127 -7.23199 6.28182
head 14.77 -3.11305 2.63372
rclavicle -4.92986e-014 7.15625e-015
rhumerus 22.043 3.02012 -80.5076
rradius 53.7444
rwrist -36.2997
rhand -17.5914 -34.6596
rfingers 7.12502
rthumb 8.66466 -64.4618
lclavicle -4.92986e-014 7.15625e-015
lhumerus -18.8456 -26.1949 86.8027
lradius 55.721
lwrist 29.2527
lhand -26.7287 -14.6687
lfingers 7.12502
lthumb -0.158067 15.311
rfemur -60.8953 -29.5886 4.34207
rtibia 75.2972
rfoot -20.1783 -1.30507
rtoes -14.7119
lfemur -65.7397 8.75541 -24.8893
ltibia 82.9244
lfoot -27.9183 3.59996
ltoes -6.85888
159
root 13.1962 13.8146 0.21866 -47.3085 -83.1461 63.3284
lowerback 45.9809 2.15749 5.59935
upperback 11.2688 3.33999 -0.904143
thorax -8.08283 0.997072 -5.16301
lowerneck -31.6335 -7.29006 -10.0768
upperneck 25.1247 -7.79312 6.94574
head 14.6146 -3.2837 2.83155
rclavicle -2.8625e-014 2.38542e-014
rhumerus 22.5356 2.9433 -80.2757
rradius 53.6409
rwrist -36.9164
rhand -17.906 -34.5681
rfingers 7.12502
rthumb 8.36106 -64.3826
lclavicle -2.8625e-014 2.38542e-014
lhumerus -19.1418 -26.0522 87.0064
lradius 56.152
lwrist 29.2084
lhand -26.5015 -13.7489
lfingers 7.12502
lthumb 0.0613705 16.2309
rfemur -61.5349 -30.1265 4.57227
rtibia 75.8146
rfoot -20.1486 -1.21937
rtoes -15.0996
lfemur -66.5799 8.46631 -24.8783
ltibia 83.5644
lfoot -28.0775 3.57761
ltoes -6.63067
160
root 13.1886 13.7658 0.259465 -44.5656 -82.9705 60.781
lowerback 45.927 2.1068 5.62461
upperback 11.3558 3.28755 -0.863086
thorax -7.97576 0.978195 -5.10576
lowerneck -31.4971 -7.67922 -10.3964
upperneck 24.6518 -8.45015 7.77204
head 14.5191 -3.47136 3.07338
rclavicle 6.20208e-014 7.95139e-016
rhumerus 23.0092 2.76503 -80.1807
rradius 53.5841
rwrist -37.2801
rhand -18.1743 -34.5428
rfingers 7.12502
rthumb 8.10208 -64.3675
lclavicle 6.20208e-014 7.95139e-016
lhumerus -19.4775 -25.9949 87.1446
lradius 56.5704
lwrist 29.3118
lhand -26.4542 -13.444
lfingers 7.12502
lthumb 0.107077 16.5357
rfemur -61.9071 -30.8192 4.5051
rtibia 76.2912
rfoot -20.1519 -0.974713
rtoes -15.4196
lfemur -67.1692 8.00177 -25.0083
ltibia 84.1688
lfoot -28.3069 3.66114
ltoes -6.26762
161
root 13.1799 13.7242 0.292504 -41.7087 -82.9209 58.1119
lowerback 45.9287 2.12763 5.68727
upperback 11.3869 3.35006 -0.77884
thorax -7.93377 1.00741 -5.07158
lowerneck -31.4772 -7.98678 -10.487
upperneck 24.4237 -8.96598 8.18006
head 14.5061 -3.6375 3.1368
rclavicle -2.22639e-014 7.71285e-014
rhumerus 23.3013 2.63479 -80.0114
rradius 53.607
rwrist -37.5628
rhand -18.4233 -34.6848
rfingers 7.12502
rthumb 7.86179 -64.5186
lclavicle -2.22639e-014 7.71285e-014
lhumerus -19.8635 -26.0763 87.3308
lradius 56.9515
lwrist 29.4987
lhand -26.3889 -13.5122
lfingers 7.12502
lthumb 0.170093 16.4675
rfemur -62.2474 -31.3174 4.60304
rtibia 76.7338
rfoot -20.2733 -0.777802
rtoes -15.5022
lfemur -67.7655 7.67933 -24.968
ltibia 84.7753
lfoot -28.5097 3.65368
ltoes -5.59833
162
root 13.1741 13.6792 0.316691 -38.3409 -82.9684 54.9364
lowerback 46.0298 2.1793 5.83281
upperback 11.3637 3.49665 -0.678951
thorax -7.96495 1.07117 -5.10069
lowerneck -31.4737 -8.29984 -10.6099
upperneck 24.2614 -9.46465 8.55037
head 14.5257 -3.80507 3.19363
rclavicle -3.97569e-014 1.74931e-014
rhumerus 23.6826 2.43348 -79.8055
rradius 53.4365
rwrist -37.847
rhand -18.9171 -34.591
rfingers 7.12502
rthumb 7.38519 -64.4421
lclavicle -3.97569e-014 1.74931e-014
lhumerus -20.2157 -26.329 87.5429
lradius 57.1886
lwrist 29.6848
lhand -26.3686 -13.6887
lfingers 7.12502
lthumb 0.189742 16.2909
rfemur -62.6498 -31.6072 4.86647
rtibia 77.1902
rfoot -20.405 -0.751068
rtoes -15.7175
lfemur -68.3977 7.49808 -24.7798
ltibia 85.3845
lfoot -28.7103 3.5281
ltoes -4.94486
163
root 13.1705 13.6314 0.336106 -36.4353 -82.9379 53.2808
lowerback 46.0818 2.31071 5.8053
upperback 11.3505 3.65424 -0.625505
thorax -7.98149 1.14203 -5.09654
lowerneck -31.3114 -8.69696 -10.9679
upperneck 23.9119 -10.0788 9.24479
head 14.4907 -4.00353 3.39413
rclavicle 4.6118e-014 -2.46493e-014
rhumerus 24.3283 1.8412 -79.9105
rradius 53.001
rwrist -37.9171
rhand -19.1052 -34.5134
rfingers 7.12502
rthumb 7.20357 -64.3708
lclavicle 4.6118e-014 -2.46493e-014
lhumerus -20.4499 -26.7446 87.7059
lradius 57.2613
lwrist 30.0114
lhand -26.4505 -13.5646
lfingers 7.12502
lthumb 0.110635 16.4151
rfemur -63.2376 -31.8391 5.00447
rtibia 77.6958
rfoot -20.4641 -0.870276
rtoes -16.418
lfemur -69.032 7.33587 -24.7741
ltibia 85.9727
lfoot -28.9774 3.41844
ltoes -4.45655
164
root 13.1672 13.5832 0.358723 -33.802 -82.8712 50.975
lowerback 45.9589 2.35771 5.91132
upperback 11.3691 3.76754 -0.543802
thorax -7.91379 1.19847 -5.10692
lowerneck -31.1619 -9.03401 -11.2601
upperneck 23.6528 -10.5807 9.74604
head 14.4717 -4.17668 3.52969
rclavicle 3.18055e-014 -1.59028e-014
rhumerus 24.9724 1.11983 -80.0927
rradius 52.749
rwrist -37.9273
rhand -18.7957 -34.7151
rfingers 7.12502
rthumb 7.50236 -64.562
lclavicle 3.18055e-014 -1.59028e-014
lhumerus -20.6293 -27.0272 87.8848
lradius 57.3796
lwrist 30.2841
lhand -26.3899 -13.0025
lfingers 7.12502
lthumb 0.169146 16.9771
rfemur -63.8933 -32.1922 5.23155
rtibia 78.2347
rfoot -20.5364 -1.01824
rtoes -17.1941
lfemur -69.7774 7.01711 -24.718
ltibia 86.5913
lfoot -29.2638 3.45062
ltoes -4.29377
165
root 13.1659 13.5336 0.379548 -31.5846 -82.7611 49.0376
lowerback 45.9024 2.39628 6.06403
upperback 11.3961 3.887 -0.492325
thorax -7.84737 1.25854 -5.17648
lowerneck -31.3234 -9.34815 -11.3664
upperneck 23.8018 -11.0249 9.88715
head 14.6439 -4.3453 3.50195
rclavicle 5.88403e-014 -3.26007e-014
rhumerus 25.6 0.41909 -80.104
rradius 52.6845
rwrist -38.067
rhand -18.5811 -34.9336
rfingers 7.12502
rthumb 7.70946 -64.773
lclavicle 5.88403e-014 -3.26007e-014
lhumerus -20.7855 -27.3268 88.012
lradius 57.5724
lwrist 30.3808
lhand -26.1129 -11.8525
lfingers 7.12502
lthumb 0.436718 18.1268
rfemur -64.4722 -32.5117 5.34239
rtibia 78.8209
rfoot -20.6479 -1.07329
rtoes -17.3718
lfemur -70.4538 6.69157 -24.6943
ltibia 87.2266
lfoot -29.592 3.47002
ltoes -3.94856
166
root 13.1662 13.4843 0.395008 -31.1757 -82.559 48.9772
lowerback 45.8228 2.5165 6.01261
upperback 11.4369 4.00588 -0.494339
thorax -7.77238 1.32044 -5.19989
lowerneck -31.6563 -9.73266 -11.5035
upperneck 23.9885 -11.5449 10.0448
head 14.8815 -4.53836 3.46431
rclavicle -8.11041e-014 -1.19271e-014
rhumerus 26.4789 -0.290632 -80.0432
rradius 52.3807
rwrist -38.2069
rhand -18.6591 -34.9348
rfingers 7.12502
rthumb 7.63417 -64.7771
lclavicle -8.11041e-014 -1.19271e-014
lhumerus -20.8272 -27.6074 88.0701
lradius 57.6739
lwrist 30.3481
lhand -25.7615 -10.6683
lfingers 7.12502
lthumb 0.776143 19.31
rfemur -65.2264 -32.8053 5.25673
rtibia 79.4632
rfoot -20.7748 -1.07686
rtoes -17.4538
lfemur -71.1794 6.43816 -24.9339
ltibia 87.8166
lfoot -29.8669 3.50061
ltoes -3.81359
167
root 13.1681 13.4285 0.409896 -29.9911 -82.3058 48.5327
lowerback 45.1806 2.61587 6.00679
upperback 11.506 4.11653 -0.451314
thorax -7.51953 1.39451 -5.1836
lowerneck -31.7695 -10.1662 -11.812
upperneck 23.7945 -12.0888 10.361
head 14.9418 -4.74586 3.50786
rclavicle -3.81667e-014 -7.15625e-015
rhumerus 27.5517 -0.972312 -79.8667
rradius 51.8818
rwrist -38.2076
rhand -18.6989 -34.8824
rfingers 7.12502
rthumb 7.59574 -64.726
lclavicle -3.81667e-014 -7.15625e-015
lhumerus -20.8304 -27.768 88.2207
lradius 57.5725
lwrist 30.2737
lhand -25.603 -10.9798
lfingers 7.12502
lthumb 0.929141 18.9979
rfemur -66.5487 -33.2684 5.46082
rtibia 80.1594
rfoot -20.8423 -1.14345
rtoes -17.9135
lfemur -72.4789 6.08722 -25.2203
ltibia 88.4138
lfoot -29.9095 3.72455
ltoes -4.48739
168
root 13.1756 13.3673 0.421016 -28.8491 -82.0788 48.1457
lowerback 44.5212 2.71616 6.05781
upperback 11.5803 4.25177 -0.396938
thorax -7.24608 1.48109 -5.19156
lowerneck -31.6989 -10.5652 -12.1633
upperneck 23.5015 -12.5637 10.6487
head 14.9177 -4.94058 3.56229
rclavicle 2.8625e-014 -8.74653e-015
rhumerus 28.7953 -1.72706 -79.6498
rradius 51.2084
rwrist -37.918
rhand -18.3626 -35.1961
rfingers 7.12502
rthumb 7.9204 -65.0277
lclavicle 2.8625e-014 -8.74653e-015
lhumerus -20.8471 -28.0424 88.3839
lradius 57.4063
lwrist 30.3527
lhand -25.6935 -12.1587
lfingers 7.12502
lthumb 0.841762 17.8194
rfemur -67.9184 -33.6675 5.69981
rtibia 80.867
rfoot -20.8503 -1.18786
rtoes -18.0966
lfemur -73.8203 5.79255 -25.4904
ltibia 89.0244
lfoot -29.8988 3.84083
ltoes -4.64155
